<svg width="24" height="25" viewBox="0 0 24 25" fill="none" xmlns="http://www.w3.org/2000/svg">
<g id="mingcute:signature-line" clip-path="url(#clip0_5_26110)">
<g id="Group">
<path id="Vector" fill-rule="evenodd" clip-rule="evenodd" d="M16.2393 5.33522C15.6443 5.46222 14.7833 5.81322 13.6893 6.42022C11.6553 7.54722 8.92626 9.71423 5.74026 13.2182C5.65188 13.3154 5.54523 13.3942 5.42639 13.4502C5.30755 13.5061 5.17885 13.5381 5.04764 13.5444C4.91643 13.5506 4.78528 13.5309 4.66168 13.4864C4.53808 13.442 4.42444 13.3736 4.32726 13.2852C4.23009 13.1968 4.15127 13.0902 4.09531 12.9713C4.03935 12.8525 4.00734 12.7238 4.00112 12.5926C3.9949 12.4614 4.01458 12.3302 4.05905 12.2066C4.10351 12.083 4.17188 11.9694 4.26026 11.8722C7.53626 8.26923 10.4323 5.93822 12.7183 4.67022C13.8783 4.02722 14.9433 3.56622 15.8253 3.38022C16.6033 3.21423 17.7673 3.16922 18.3663 4.14822C18.6373 4.59122 18.6793 5.09622 18.6313 5.55222C18.5833 6.01322 18.4343 6.51723 18.2143 7.05122C17.7743 8.12022 16.9823 9.47123 15.8173 11.1212C14.4553 13.0512 13.7143 14.3622 13.3803 15.2112C13.3146 15.374 13.2602 15.541 13.2173 15.7112C13.3223 15.6892 13.4473 15.6552 13.5953 15.6062C14.1503 15.4212 14.8303 15.0812 15.4853 14.6882C16.1253 14.3042 16.7053 14.0262 17.2073 13.9482C17.4703 13.9082 17.8163 13.9052 18.1533 14.0742C18.5223 14.2592 18.7293 14.5712 18.8263 14.8672C18.9693 15.3062 18.9043 15.7802 18.8023 16.2192C18.6373 16.9322 18.3593 17.6142 18.1813 18.3232C18.2903 18.2772 18.4133 18.2202 18.5533 18.1512C18.7892 18.0422 19.0582 18.0294 19.3035 18.1154C19.5487 18.2013 19.7508 18.3794 19.8671 18.6118C19.9833 18.8443 20.0044 19.1128 19.9261 19.3606C19.8477 19.6083 19.676 19.8159 19.4473 19.9392C18.7973 20.2642 18.1823 20.4912 17.6373 20.4892C17.303 20.4947 16.9757 20.3931 16.7033 20.1992C16.4386 20.0016 16.2484 19.7204 16.1633 19.4012C16.0273 18.9202 16.1143 18.3942 16.1963 18.0292C16.3263 17.4372 16.5333 16.8672 16.7103 16.2892C15.9063 16.7462 15.1103 17.2092 14.2273 17.5042C13.8533 17.6362 13.463 17.7159 13.0673 17.7412C12.6933 17.7562 12.1943 17.7012 11.7773 17.3612C11.3253 16.9952 11.1743 16.4692 11.1753 15.9852C11.1753 15.5222 11.3093 15.0142 11.5193 14.4792C11.9423 13.4032 12.7953 11.9352 14.1833 9.96922C15.3133 8.36923 16.0073 7.15822 16.3643 6.28922C16.4943 5.97322 16.6283 5.62922 16.6473 5.28322C16.5643 5.28322 16.4343 5.29322 16.2393 5.33522Z" fill="white"/>
</g>
</g>
<defs>
<clipPath id="clip0_5_26110">
<rect width="24" height="24" fill="white" transform="translate(0 0.545166)"/>
</clipPath>
</defs>
</svg>
