<svg width="20" height="20" viewBox="0 0 20 20" fill="none" xmlns="http://www.w3.org/2000/svg">
<g id="Bold Duotone / Settings, Fine Tuning / Tuning ">
<g id="Group 1597880576">
<g id="Vector">
<path d="M11.4635 10.9095C11.4635 9.75358 12.4429 8.8165 13.651 8.8165C14.8592 8.8165 15.8385 9.75358 15.8385 10.9095C15.8385 12.0655 14.8592 13.0025 13.651 13.0025C12.4429 13.0025 11.4635 12.0655 11.4635 10.9095Z" fill="white"/>
<path d="M11.4635 10.9095C11.4635 9.75358 12.4429 8.8165 13.651 8.8165C14.8592 8.8165 15.8385 9.75358 15.8385 10.9095C15.8385 12.0655 14.8592 13.0025 13.651 13.0025C12.4429 13.0025 11.4635 12.0655 11.4635 10.9095Z" fill="white"/>
<path d="M11.4635 10.9095C11.4635 9.75358 12.4429 8.8165 13.651 8.8165C14.8592 8.8165 15.8385 9.75358 15.8385 10.9095C15.8385 12.0655 14.8592 13.0025 13.651 13.0025C12.4429 13.0025 11.4635 12.0655 11.4635 10.9095Z" fill="white"/>
<path d="M11.4635 10.9095C11.4635 9.75358 12.4429 8.8165 13.651 8.8165C14.8592 8.8165 15.8385 9.75358 15.8385 10.9095C15.8385 12.0655 14.8592 13.0025 13.651 13.0025C12.4429 13.0025 11.4635 12.0655 11.4635 10.9095Z" fill="white"/>
<path d="M11.4635 10.9095C11.4635 9.75358 12.4429 8.8165 13.651 8.8165C14.8592 8.8165 15.8385 9.75358 15.8385 10.9095C15.8385 12.0655 14.8592 13.0025 13.651 13.0025C12.4429 13.0025 11.4635 12.0655 11.4635 10.9095Z" fill="white"/>
<path d="M11.4635 10.9095C11.4635 9.75358 12.4429 8.8165 13.651 8.8165C14.8592 8.8165 15.8385 9.75358 15.8385 10.9095C15.8385 12.0655 14.8592 13.0025 13.651 13.0025C12.4429 13.0025 11.4635 12.0655 11.4635 10.9095Z" fill="white"/>
<path d="M11.4635 10.9095C11.4635 9.75358 12.4429 8.8165 13.651 8.8165C14.8592 8.8165 15.8385 9.75358 15.8385 10.9095C15.8385 12.0655 14.8592 13.0025 13.651 13.0025C12.4429 13.0025 11.4635 12.0655 11.4635 10.9095Z" fill="white"/>
<path d="M4.17188 7.42115C4.17187 8.57709 5.15125 9.51417 6.35937 9.51417C7.5675 9.51417 8.54687 8.57709 8.54688 7.42115C8.54688 6.2652 7.5675 5.32813 6.35938 5.32812C5.15125 5.32812 4.17188 6.2652 4.17188 7.42115Z" fill="white"/>
<path d="M4.17188 7.42115C4.17187 8.57709 5.15125 9.51417 6.35937 9.51417C7.5675 9.51417 8.54687 8.57709 8.54688 7.42115C8.54688 6.2652 7.5675 5.32813 6.35938 5.32812C5.15125 5.32812 4.17188 6.2652 4.17188 7.42115Z" fill="white"/>
<path d="M4.17188 7.42115C4.17187 8.57709 5.15125 9.51417 6.35937 9.51417C7.5675 9.51417 8.54687 8.57709 8.54688 7.42115C8.54688 6.2652 7.5675 5.32813 6.35938 5.32812C5.15125 5.32812 4.17188 6.2652 4.17188 7.42115Z" fill="white"/>
<path d="M4.17188 7.42115C4.17187 8.57709 5.15125 9.51417 6.35937 9.51417C7.5675 9.51417 8.54687 8.57709 8.54688 7.42115C8.54688 6.2652 7.5675 5.32813 6.35938 5.32812C5.15125 5.32812 4.17188 6.2652 4.17188 7.42115Z" fill="white"/>
<path d="M4.17188 7.42115C4.17187 8.57709 5.15125 9.51417 6.35937 9.51417C7.5675 9.51417 8.54687 8.57709 8.54688 7.42115C8.54688 6.2652 7.5675 5.32813 6.35938 5.32812C5.15125 5.32812 4.17188 6.2652 4.17188 7.42115Z" fill="white"/>
<path d="M4.17188 7.42115C4.17187 8.57709 5.15125 9.51417 6.35937 9.51417C7.5675 9.51417 8.54687 8.57709 8.54688 7.42115C8.54688 6.2652 7.5675 5.32813 6.35938 5.32812C5.15125 5.32812 4.17188 6.2652 4.17188 7.42115Z" fill="white"/>
<path d="M4.17188 7.42115C4.17187 8.57709 5.15125 9.51417 6.35937 9.51417C7.5675 9.51417 8.54687 8.57709 8.54688 7.42115C8.54688 6.2652 7.5675 5.32813 6.35938 5.32812C5.15125 5.32812 4.17188 6.2652 4.17188 7.42115Z" fill="white"/>
</g>
<g id="Vector_2" opacity="0.5">
<path d="M6.875 5.38947C6.70935 5.3511 6.53634 5.33076 6.35837 5.33076C6.15861 5.33076 5.96511 5.35638 5.78125 5.40437L5.78125 2.19122C5.78125 1.90224 6.02609 1.66797 6.32813 1.66797C6.63016 1.66797 6.875 1.90224 6.875 2.19122L6.875 5.38947Z" fill="white"/>
<path d="M6.875 5.38947C6.70935 5.3511 6.53634 5.33076 6.35837 5.33076C6.15861 5.33076 5.96511 5.35638 5.78125 5.40437L5.78125 2.19122C5.78125 1.90224 6.02609 1.66797 6.32813 1.66797C6.63016 1.66797 6.875 1.90224 6.875 2.19122L6.875 5.38947Z" fill="white"/>
<path d="M6.875 5.38947C6.70935 5.3511 6.53634 5.33076 6.35837 5.33076C6.15861 5.33076 5.96511 5.35638 5.78125 5.40437L5.78125 2.19122C5.78125 1.90224 6.02609 1.66797 6.32813 1.66797C6.63016 1.66797 6.875 1.90224 6.875 2.19122L6.875 5.38947Z" fill="white"/>
<path d="M6.875 5.38947C6.70935 5.3511 6.53634 5.33076 6.35837 5.33076C6.15861 5.33076 5.96511 5.35638 5.78125 5.40437L5.78125 2.19122C5.78125 1.90224 6.02609 1.66797 6.32813 1.66797C6.63016 1.66797 6.875 1.90224 6.875 2.19122L6.875 5.38947Z" fill="white"/>
<path d="M6.875 5.38947C6.70935 5.3511 6.53634 5.33076 6.35837 5.33076C6.15861 5.33076 5.96511 5.35638 5.78125 5.40437L5.78125 2.19122C5.78125 1.90224 6.02609 1.66797 6.32813 1.66797C6.63016 1.66797 6.875 1.90224 6.875 2.19122L6.875 5.38947Z" fill="white"/>
<path d="M6.875 5.38947C6.70935 5.3511 6.53634 5.33076 6.35837 5.33076C6.15861 5.33076 5.96511 5.35638 5.78125 5.40437L5.78125 2.19122C5.78125 1.90224 6.02609 1.66797 6.32813 1.66797C6.63016 1.66797 6.875 1.90224 6.875 2.19122L6.875 5.38947Z" fill="white"/>
<path d="M6.875 5.38947C6.70935 5.3511 6.53634 5.33076 6.35837 5.33076C6.15861 5.33076 5.96511 5.35638 5.78125 5.40437L5.78125 2.19122C5.78125 1.90224 6.02609 1.66797 6.32813 1.66797C6.63016 1.66797 6.875 1.90224 6.875 2.19122L6.875 5.38947Z" fill="white"/>
<path d="M5.78125 9.4432C5.96511 9.49119 6.15861 9.51681 6.35837 9.51681C6.53634 9.51681 6.70935 9.49647 6.875 9.45809L6.875 16.1447C6.875 16.4337 6.63016 16.668 6.32812 16.668C6.02609 16.668 5.78125 16.4337 5.78125 16.1447L5.78125 9.4432Z" fill="white"/>
<path d="M5.78125 9.4432C5.96511 9.49119 6.15861 9.51681 6.35837 9.51681C6.53634 9.51681 6.70935 9.49647 6.875 9.45809L6.875 16.1447C6.875 16.4337 6.63016 16.668 6.32812 16.668C6.02609 16.668 5.78125 16.4337 5.78125 16.1447L5.78125 9.4432Z" fill="white"/>
<path d="M5.78125 9.4432C5.96511 9.49119 6.15861 9.51681 6.35837 9.51681C6.53634 9.51681 6.70935 9.49647 6.875 9.45809L6.875 16.1447C6.875 16.4337 6.63016 16.668 6.32812 16.668C6.02609 16.668 5.78125 16.4337 5.78125 16.1447L5.78125 9.4432Z" fill="white"/>
<path d="M5.78125 9.4432C5.96511 9.49119 6.15861 9.51681 6.35837 9.51681C6.53634 9.51681 6.70935 9.49647 6.875 9.45809L6.875 16.1447C6.875 16.4337 6.63016 16.668 6.32812 16.668C6.02609 16.668 5.78125 16.4337 5.78125 16.1447L5.78125 9.4432Z" fill="white"/>
<path d="M5.78125 9.4432C5.96511 9.49119 6.15861 9.51681 6.35837 9.51681C6.53634 9.51681 6.70935 9.49647 6.875 9.45809L6.875 16.1447C6.875 16.4337 6.63016 16.668 6.32812 16.668C6.02609 16.668 5.78125 16.4337 5.78125 16.1447L5.78125 9.4432Z" fill="white"/>
<path d="M5.78125 9.4432C5.96511 9.49119 6.15861 9.51681 6.35837 9.51681C6.53634 9.51681 6.70935 9.49647 6.875 9.45809L6.875 16.1447C6.875 16.4337 6.63016 16.668 6.32812 16.668C6.02609 16.668 5.78125 16.4337 5.78125 16.1447L5.78125 9.4432Z" fill="white"/>
<path d="M5.78125 9.4432C5.96511 9.49119 6.15861 9.51681 6.35837 9.51681C6.53634 9.51681 6.70935 9.49647 6.875 9.45809L6.875 16.1447C6.875 16.4337 6.63016 16.668 6.32812 16.668C6.02609 16.668 5.78125 16.4337 5.78125 16.1447L5.78125 9.4432Z" fill="white"/>
<path d="M13.0729 12.9316V16.1447C13.0729 16.4337 13.3178 16.668 13.6198 16.668C13.9218 16.668 14.1667 16.4337 14.1667 16.1447V12.9465C14.001 12.9848 13.828 13.0052 13.65 13.0052C13.4503 13.0052 13.2568 12.9796 13.0729 12.9316Z" fill="white"/>
<path d="M13.0729 12.9316V16.1447C13.0729 16.4337 13.3178 16.668 13.6198 16.668C13.9218 16.668 14.1667 16.4337 14.1667 16.1447V12.9465C14.001 12.9848 13.828 13.0052 13.65 13.0052C13.4503 13.0052 13.2568 12.9796 13.0729 12.9316Z" fill="white"/>
<path d="M13.0729 12.9316V16.1447C13.0729 16.4337 13.3178 16.668 13.6198 16.668C13.9218 16.668 14.1667 16.4337 14.1667 16.1447V12.9465C14.001 12.9848 13.828 13.0052 13.65 13.0052C13.4503 13.0052 13.2568 12.9796 13.0729 12.9316Z" fill="white"/>
<path d="M13.0729 12.9316V16.1447C13.0729 16.4337 13.3178 16.668 13.6198 16.668C13.9218 16.668 14.1667 16.4337 14.1667 16.1447V12.9465C14.001 12.9848 13.828 13.0052 13.65 13.0052C13.4503 13.0052 13.2568 12.9796 13.0729 12.9316Z" fill="white"/>
<path d="M13.0729 12.9316V16.1447C13.0729 16.4337 13.3178 16.668 13.6198 16.668C13.9218 16.668 14.1667 16.4337 14.1667 16.1447V12.9465C14.001 12.9848 13.828 13.0052 13.65 13.0052C13.4503 13.0052 13.2568 12.9796 13.0729 12.9316Z" fill="white"/>
<path d="M13.0729 12.9316V16.1447C13.0729 16.4337 13.3178 16.668 13.6198 16.668C13.9218 16.668 14.1667 16.4337 14.1667 16.1447V12.9465C14.001 12.9848 13.828 13.0052 13.65 13.0052C13.4503 13.0052 13.2568 12.9796 13.0729 12.9316Z" fill="white"/>
<path d="M13.0729 12.9316V16.1447C13.0729 16.4337 13.3178 16.668 13.6198 16.668C13.9218 16.668 14.1667 16.4337 14.1667 16.1447V12.9465C14.001 12.9848 13.828 13.0052 13.65 13.0052C13.4503 13.0052 13.2568 12.9796 13.0729 12.9316Z" fill="white"/>
<path d="M14.1667 8.87784V2.19122C14.1667 1.90224 13.9218 1.66797 13.6198 1.66797C13.3178 1.66797 13.0729 1.90224 13.0729 2.19122V8.89274C13.2568 8.84475 13.4503 8.81913 13.65 8.81913C13.828 8.81913 14.001 8.83947 14.1667 8.87784Z" fill="white"/>
<path d="M14.1667 8.87784V2.19122C14.1667 1.90224 13.9218 1.66797 13.6198 1.66797C13.3178 1.66797 13.0729 1.90224 13.0729 2.19122V8.89274C13.2568 8.84475 13.4503 8.81913 13.65 8.81913C13.828 8.81913 14.001 8.83947 14.1667 8.87784Z" fill="white"/>
<path d="M14.1667 8.87784V2.19122C14.1667 1.90224 13.9218 1.66797 13.6198 1.66797C13.3178 1.66797 13.0729 1.90224 13.0729 2.19122V8.89274C13.2568 8.84475 13.4503 8.81913 13.65 8.81913C13.828 8.81913 14.001 8.83947 14.1667 8.87784Z" fill="white"/>
<path d="M14.1667 8.87784V2.19122C14.1667 1.90224 13.9218 1.66797 13.6198 1.66797C13.3178 1.66797 13.0729 1.90224 13.0729 2.19122V8.89274C13.2568 8.84475 13.4503 8.81913 13.65 8.81913C13.828 8.81913 14.001 8.83947 14.1667 8.87784Z" fill="white"/>
<path d="M14.1667 8.87784V2.19122C14.1667 1.90224 13.9218 1.66797 13.6198 1.66797C13.3178 1.66797 13.0729 1.90224 13.0729 2.19122V8.89274C13.2568 8.84475 13.4503 8.81913 13.65 8.81913C13.828 8.81913 14.001 8.83947 14.1667 8.87784Z" fill="white"/>
<path d="M14.1667 8.87784V2.19122C14.1667 1.90224 13.9218 1.66797 13.6198 1.66797C13.3178 1.66797 13.0729 1.90224 13.0729 2.19122V8.89274C13.2568 8.84475 13.4503 8.81913 13.65 8.81913C13.828 8.81913 14.001 8.83947 14.1667 8.87784Z" fill="white"/>
<path d="M14.1667 8.87784V2.19122C14.1667 1.90224 13.9218 1.66797 13.6198 1.66797C13.3178 1.66797 13.0729 1.90224 13.0729 2.19122V8.89274C13.2568 8.84475 13.4503 8.81913 13.65 8.81913C13.828 8.81913 14.001 8.83947 14.1667 8.87784Z" fill="white"/>
</g>
</g>
</g>
</svg>
