<svg width="24" height="24" viewBox="0 0 24 24" fill="none" xmlns="http://www.w3.org/2000/svg">
<g id="booking">
<path id="Vector" d="M5.22234 17.7877C5.06735 18.0541 4.7882 18.204 4.49988 18.204C4.35822 18.204 4.21489 18.1682 4.08323 18.0924C2.79829 17.3498 2 15.9688 2 14.487V7.82726C2.00083 5.53215 3.86991 3.66493 6.1673 3.66493V2.83247C6.1673 2.37294 6.54061 2 7.00059 2C7.46057 2 7.83388 2.37294 7.83388 2.83247V3.66493H13.6669V2.83247C13.6669 2.37294 14.0394 2 14.5002 2C14.961 2 15.3335 2.37294 15.3335 2.83247V3.66493C17.6309 3.66493 19.5 5.53215 19.5 7.82726V14.487C19.5 14.9465 19.1275 15.3195 18.6667 15.3195C18.2059 15.3195 17.8334 14.9465 17.8334 14.487V9.4922H17.0001C16.5393 9.4922 16.1668 9.11925 16.1668 8.65973C16.1668 8.20021 16.5393 7.82726 17.0001 7.82726H17.8334C17.8334 6.45036 16.7118 5.32986 15.3335 5.32986H6.1673C4.78903 5.32986 3.66742 6.45036 3.66742 7.82726H10.3338C10.7937 7.82726 11.1671 8.20021 11.1671 8.65973C11.1671 9.11925 10.7937 9.4922 10.3338 9.4922H3.66742V14.487C3.66742 15.3761 4.14656 16.2052 4.91736 16.6506C5.31567 16.8803 5.45317 17.3898 5.22234 17.7877ZM19.2983 17.4672L16.1743 16.3009V12.1011C16.1743 10.8391 15.2777 9.74194 14.0886 9.5488C13.3545 9.42976 12.6153 9.63372 12.0562 10.1091C11.4962 10.5844 11.1746 11.2787 11.1746 12.0121V18.308L10.3288 17.6354C10.3229 17.6304 10.3154 17.6304 10.3096 17.6254C9.30048 16.7488 7.76889 16.8137 6.84893 17.7977C5.90731 18.8033 5.96064 20.3867 6.95726 21.319L7.42224 21.7669C7.57723 21.9168 7.78472 22 8.00054 22C8.75051 22 9.11882 21.0884 8.57885 20.5682L8.10554 20.112C7.76972 19.7973 7.75222 19.2687 8.06721 18.9332C8.37969 18.5985 8.90717 18.5827 9.24215 18.8932C9.25048 18.9007 11.4895 20.6839 11.4895 20.6839C11.7404 20.8837 12.0837 20.9211 12.3703 20.7829C12.6587 20.6439 12.842 20.3526 12.842 20.0329V12.0096C12.842 11.7648 12.9495 11.5334 13.1361 11.3744C13.3261 11.2137 13.5678 11.1471 13.8211 11.1888C14.2069 11.252 14.5086 11.6516 14.5086 12.0986V16.8762C14.5086 17.2233 14.7244 17.5347 15.0502 17.6562L18.7159 19.0248C19.6358 19.3677 20.2708 20.2219 20.3349 21.1992C20.3641 21.6395 20.7308 21.9775 21.1657 21.9775C21.1841 21.9775 21.2024 21.9775 21.2207 21.9759C21.6799 21.9451 22.0282 21.5488 21.9982 21.0909C21.8907 19.461 20.8316 18.0383 19.2983 17.4672Z" fill="#667085"/>
</g>
</svg>
