<svg width="16" height="16" viewBox="0 0 16 16" fill="none" xmlns="http://www.w3.org/2000/svg">
<g id="document (2) 1" clip-path="url(#clip0_5_36321)">
<path id="Vector" d="M11.3281 9.33335C11.3281 9.51016 11.2579 9.67973 11.1329 9.80475C11.0078 9.92978 10.8383 10 10.6615 10H5.32812C5.15131 10 4.98175 9.92978 4.85672 9.80475C4.7317 9.67973 4.66146 9.51016 4.66146 9.33335C4.66146 9.15654 4.7317 8.98697 4.85672 8.86194C4.98175 8.73692 5.15131 8.66668 5.32812 8.66668H10.6615C10.8383 8.66668 11.0078 8.73692 11.1329 8.86194C11.2579 8.98697 11.3281 9.15654 11.3281 9.33335ZM8.66146 11.3333H5.32812C5.15131 11.3333 4.98175 11.4036 4.85672 11.5286C4.7317 11.6536 4.66146 11.8232 4.66146 12C4.66146 12.1768 4.7317 12.3464 4.85672 12.4714C4.98175 12.5964 5.15131 12.6667 5.32812 12.6667H8.66146C8.83827 12.6667 9.00784 12.5964 9.13286 12.4714C9.25789 12.3464 9.32812 12.1768 9.32812 12C9.32812 11.8232 9.25789 11.6536 9.13286 11.5286C9.00784 11.4036 8.83827 11.3333 8.66146 11.3333ZM14.6615 6.99002V12.6667C14.6604 13.5504 14.3089 14.3976 13.684 15.0225C13.0591 15.6474 12.2119 15.999 11.3281 16H4.66146C3.77773 15.999 2.9305 15.6474 2.3056 15.0225C1.68071 14.3976 1.32918 13.5504 1.32812 12.6667V3.33335C1.32918 2.44962 1.68071 1.60239 2.3056 0.977495C2.9305 0.352603 3.77773 0.00107394 4.66146 1.53658e-05H7.67146C8.28454 -0.00156258 8.89185 0.118407 9.45827 0.352988C10.0247 0.587569 10.539 0.932107 10.9715 1.36668L13.2941 3.69068C13.7289 4.12284 14.0737 4.63699 14.3084 5.20333C14.5431 5.76968 14.6631 6.37696 14.6615 6.99002ZM10.0288 2.30935C9.81898 2.10612 9.58341 1.9313 9.32812 1.78935V4.66668C9.32812 4.84349 9.39836 5.01306 9.52339 5.13809C9.64841 5.26311 9.81798 5.33335 9.99479 5.33335H12.8721C12.7301 5.07814 12.555 4.84278 12.3515 4.63335L10.0288 2.30935ZM13.3281 6.99002C13.3281 6.88002 13.3068 6.77468 13.2968 6.66668H9.99479C9.46436 6.66668 8.95565 6.45597 8.58058 6.0809C8.20551 5.70582 7.99479 5.19711 7.99479 4.66668V1.36468C7.88679 1.35468 7.78079 1.33335 7.67146 1.33335H4.66146C4.13103 1.33335 3.62232 1.54406 3.24724 1.91914C2.87217 2.29421 2.66146 2.80292 2.66146 3.33335V12.6667C2.66146 13.1971 2.87217 13.7058 3.24724 14.0809C3.62232 14.456 4.13103 14.6667 4.66146 14.6667H11.3281C11.8586 14.6667 12.3673 14.456 12.7423 14.0809C13.1174 13.7058 13.3281 13.1971 13.3281 12.6667V6.99002Z" fill="#667085"/>
</g>
<defs>
<clipPath id="clip0_5_36321">
<rect width="16" height="16" fill="white"/>
</clipPath>
</defs>
</svg>
