<svg width="24" height="24" viewBox="0 0 24 24" fill="none" xmlns="http://www.w3.org/2000/svg">
<g id="Frame 2085663686">
<rect width="24" height="24" rx="4" fill="#FF0000"/>
<g id="Trash can">
<path id="Rectangle 74" d="M6.51099 9.22523C5.88843 8.39514 6.48072 7.21057 7.51832 7.21057H15.7448C16.7824 7.21057 17.3747 8.39514 16.7522 9.22523V9.22523C16.2981 9.83066 16.0526 10.567 16.0526 11.3238V16.0527C16.0526 17.6805 14.733 19 13.1053 19H10.1579C8.53011 19 7.21053 17.6805 7.21053 16.0527V11.3238C7.21053 10.567 6.96507 9.83066 6.51099 9.22523V9.22523Z" stroke="white" stroke-width="1.10526"/>
<path id="Line" d="M13.1055 15.3158L13.1055 10.8948" stroke="white" stroke-width="1.10526" stroke-linecap="round" stroke-linejoin="round"/>
<path id="Line_2" d="M10.1562 15.3158L10.1562 10.8948" stroke="white" stroke-width="1.10526" stroke-linecap="round" stroke-linejoin="round"/>
<path id="Rectangle 4" d="M14.5783 7.21053L14.1774 6.00766C13.9768 5.4059 13.4136 5 12.7793 5H10.4826C9.84829 5 9.28514 5.4059 9.08455 6.00766L8.68359 7.21053" stroke="white" stroke-width="1.10526" stroke-linecap="round"/>
</g>
</g>
</svg>
