<svg width="44" height="44" viewBox="0 0 44 44" fill="none" xmlns="http://www.w3.org/2000/svg">
<g id="download">
<rect width="44" height="44" rx="22" fill="#1B1F24"/>
<g id="export">
<path id="Vector" d="M24.3505 30.4683H18.6455C14.3492 30.4683 12.5117 28.6308 12.5117 24.3345V24.2208C12.5117 20.3358 14.043 18.4633 17.473 18.1395C17.823 18.1133 18.1555 18.3758 18.1905 18.7345C18.2255 19.0933 17.963 19.417 17.5955 19.452C14.848 19.7058 13.8242 21.0008 13.8242 24.2295V24.3433C13.8242 27.9045 15.0842 29.1645 18.6455 29.1645H24.3505C27.9117 29.1645 29.1717 27.9045 29.1717 24.3433V24.2295C29.1717 20.9833 28.1305 19.6883 25.3305 19.452C24.9717 19.417 24.7005 19.102 24.7355 18.7433C24.7705 18.3845 25.0767 18.1133 25.4442 18.1483C28.9267 18.4458 30.4842 20.327 30.4842 24.2383V24.352C30.4842 28.6308 28.6467 30.4683 24.3505 30.4683Z" fill="#667085"/>
<path id="Vector_2" d="M21.5 24.7798C21.1413 24.7798 20.8438 24.4823 20.8438 24.1235V14.166C20.8438 13.8073 21.1413 13.5098 21.5 13.5098C21.8587 13.5098 22.1562 13.8073 22.1562 14.166V24.1235C22.1562 24.4823 21.8587 24.7798 21.5 24.7798Z" fill="#667085"/>
<path id="Vector_3" d="M24.4267 16.7728C24.2605 16.7728 24.0942 16.7116 23.963 16.5803L21.4955 14.1128L19.028 16.5803C18.7742 16.8341 18.3542 16.8341 18.1005 16.5803C17.8467 16.3266 17.8467 15.9066 18.1005 15.6528L21.0317 12.7216C21.2855 12.4678 21.7055 12.4678 21.9592 12.7216L24.8905 15.6528C25.1442 15.9066 25.1442 16.3266 24.8905 16.5803C24.768 16.7116 24.593 16.7728 24.4267 16.7728Z" fill="#667085"/>
</g>
</g>
</svg>
