<svg width="16" height="16" viewBox="0 0 16 16" fill="none" xmlns="http://www.w3.org/2000/svg">
<g id="driver-man (2) 1">
<path id="Vector" d="M7.99737 8C10.2034 8 11.9974 6.206 11.9974 4C11.9974 1.794 10.2034 0 7.99737 0C5.79137 0 3.99737 1.794 3.99737 4C3.99737 6.206 5.79137 8 7.99737 8ZM7.99737 2C9.10003 2 9.99737 2.89733 9.99737 4C9.99737 5.10267 9.10003 6 7.99737 6C6.8947 6 5.99737 5.10267 5.99737 4C5.99737 2.89733 6.8947 2 7.99737 2ZM11.2867 14.8573C11.366 15.404 11.0487 16 10.296 16C9.80737 16 9.37937 15.6407 9.30803 15.1427C9.21337 14.4907 8.6507 14 7.99803 14C7.34537 14 6.78203 14.4913 6.68803 15.1427C6.60937 15.6893 6.1027 16.0687 5.55537 15.9893C5.0087 15.9107 4.62937 15.4033 4.7087 14.8567C4.94403 13.228 6.35803 11.9993 7.99803 11.9993C9.63803 11.9993 11.0527 13.2273 11.2874 14.8567L11.2867 14.8573ZM14.6454 14.942C14.6774 15.4933 14.2567 15.9667 13.7054 15.9987C13.6854 15.9993 13.6654 16 13.646 16C13.12 16 12.6794 15.59 12.6487 15.058C12.5054 12.5953 10.462 10.6667 7.99737 10.6667C5.5327 10.6667 3.48937 12.596 3.34603 15.058C3.31403 15.6093 2.83937 16.0267 2.28937 15.998C1.73803 15.966 1.31737 15.4927 1.34937 14.9413C1.5547 11.4227 4.4747 8.666 7.99737 8.666C11.52 8.666 14.44 11.4227 14.6454 14.942Z" fill="#667085"/>
</g>
</svg>
