<svg width="16" height="16" viewBox="0 0 16 16" fill="none" xmlns="http://www.w3.org/2000/svg">
<g id="expense 1" clip-path="url(#clip0_5_36329)">
<path id="Vector" d="M15.3447 5.85653C14.948 5.4952 14.4407 5.3092 13.8987 5.3352C13.3627 5.35987 12.8687 5.59254 12.5087 5.9892L10.364 8.3452C9.99667 7.7392 9.33 7.33253 8.57133 7.33253H6V6.66587H6.25067C7.21533 6.66587 8 5.8812 8 4.91654C8 4.05787 7.38467 3.33187 6.538 3.1912L4.348 2.82587C4.14667 2.79254 4.00067 2.61987 4.00067 2.4152C4.00067 2.18587 4.18733 1.9992 4.41667 1.9992H6.17933C6.41667 1.9992 6.638 2.1272 6.75733 2.33254C6.94067 2.6512 7.34733 2.76054 7.668 2.57587C7.98667 2.3912 8.096 1.98387 7.91067 1.6652C7.55467 1.04854 6.89067 0.665202 6.17867 0.665202H6C6 0.297202 5.702 -0.00146484 5.33333 -0.00146484C4.96467 -0.00146484 4.66667 0.297202 4.66667 0.665202H4.416C3.45133 0.665202 2.66667 1.44987 2.66667 2.41454C2.66667 3.2732 3.282 3.9992 4.12867 4.13987L6.31867 4.5052C6.52 4.53854 6.666 4.7112 6.666 4.91587C6.666 5.1452 6.47933 5.33187 6.25 5.33187H4.48733C4.25 5.33187 4.02867 5.20387 3.90933 4.99854C3.726 4.6792 3.31867 4.56987 2.99867 4.7552C2.68 4.93987 2.57067 5.3472 2.756 5.66587C3.112 6.28254 3.776 6.6652 4.488 6.6652H4.66667V7.33187H2.66667C1.196 7.33187 0 8.52787 0 9.99854V13.3319C0 14.8025 1.196 15.9985 2.66667 15.9985H5.97667C7.87667 15.9985 9.69 15.1852 10.9547 13.7665L15.4907 8.6752C16.22 7.85853 16.1547 6.5932 15.3453 5.8552L15.3447 5.85653ZM14.4947 7.7892L9.958 12.8812C8.94667 14.0159 7.496 14.6665 5.976 14.6665H2.666C1.93067 14.6665 1.33267 14.0685 1.33267 13.3332V9.99987C1.33267 9.26453 1.93067 8.66654 2.666 8.66654H8.57067C8.99067 8.66654 9.33267 9.00787 9.33267 9.42787C9.33267 9.80387 9.05133 10.1285 8.67933 10.1819L5.23867 10.6732C4.874 10.7252 4.62067 11.0625 4.67267 11.4272C4.72467 11.7912 5.062 12.0419 5.42733 11.9925L8.868 11.5012C9.65133 11.3892 10.2867 10.8425 10.544 10.1292L13.4953 6.88587C13.616 6.75254 13.782 6.6752 13.9613 6.66654C14.142 6.66187 14.3133 6.7212 14.4467 6.8412C14.718 7.0892 14.74 7.51387 14.4947 7.78854V7.7892ZM8.66667 2.6772C8.66667 2.3092 8.96467 2.01054 9.33333 2.01054H12.0507L11.1907 1.1332C10.9327 0.869869 10.9367 0.447868 11.2 0.189868C11.462 -0.0667982 11.8853 -0.0641315 12.1427 0.199202L13.594 1.67987C13.8547 1.93987 14 2.2912 14 2.66587C14 3.04054 13.854 3.39254 13.5893 3.6572L12.1427 5.13253C12.0127 5.26587 11.8393 5.33254 11.6667 5.33254C11.498 5.33254 11.3293 5.2692 11.2 5.14187C10.9367 4.88387 10.9333 4.46187 11.1907 4.19853L12.0293 3.34254H9.33333C8.96467 3.34254 8.66667 3.04387 8.66667 2.67587V2.6772Z" fill="#667085"/>
</g>
<defs>
<clipPath id="clip0_5_36329">
<rect width="16" height="16" fill="white"/>
</clipPath>
</defs>
</svg>
