<svg width="24" height="24" viewBox="0 0 24 24" fill="none" xmlns="http://www.w3.org/2000/svg">
<g id="hugeicons:pdf-01">
<g id="Group">
<path id="Vector" d="M3.5 13V12.196C3.5 9.229 3.5 7.746 3.969 6.56C4.723 4.655 6.317 3.153 8.339 2.442C9.595 2 11.168 2 14.318 2C16.116 2 17.016 2 17.734 2.253C18.889 2.659 19.8 3.517 20.231 4.606C20.499 5.283 20.499 6.131 20.499 7.826V13" stroke="white" stroke-width="1.5" stroke-linecap="round" stroke-linejoin="round"/>
<path id="Vector_2" d="M3.5 12C3.5 11.116 3.85115 10.2683 4.47621 9.64321C5.10127 9.01815 5.94903 8.667 6.833 8.667C7.499 8.667 8.284 8.783 8.931 8.61C9.21371 8.53392 9.47145 8.38485 9.67838 8.17774C9.88531 7.97064 10.0342 7.71277 10.11 7.43C10.283 6.783 10.167 5.998 10.167 5.332C10.1673 4.44821 10.5185 3.6007 11.1436 2.97586C11.7686 2.35102 12.6162 2 13.5 2M3.5 22V19M3.5 19V17.2C3.5 16.634 3.5 16.352 3.676 16.176C3.85 16 4.134 16 4.7 16H5.5C5.89782 16 6.27936 16.158 6.56066 16.4393C6.84196 16.7206 7 17.1022 7 17.5C7 17.8978 6.84196 18.2794 6.56066 18.5607C6.27936 18.842 5.89782 19 5.5 19H3.5ZM20.5 16H19C18.057 16 17.586 16 17.293 16.293C17 16.586 17 17.057 17 18V19M17 19V22M17 19H19.5M14 19C14 19.7956 13.6839 20.5587 13.1213 21.1213C12.5587 21.6839 11.7956 22 11 22C10.626 22 10.44 22 10.3 21.92C9.967 21.727 10 21.338 10 21V17C10 16.662 9.967 16.273 10.3 16.08C10.44 16 10.626 16 11 16C11.394 16 11.7841 16.0776 12.1481 16.2284C12.512 16.3791 12.8427 16.6001 13.1213 16.8787C13.3999 17.1573 13.6209 17.488 13.7716 17.8519C13.9224 18.2159 14 18.606 14 19Z" stroke="white" stroke-width="1.5" stroke-linecap="round" stroke-linejoin="round"/>
</g>
</g>
</svg>
