<svg width="32" height="20" viewBox="0 0 32 20" fill="none" xmlns="http://www.w3.org/2000/svg">
<g id="logo/mc">
<path id="Vector" d="M20.3241 2.13867H11.6719V17.8609H20.3241V2.13867Z" fill="#FF5F00"/>
<path id="Vector_2" d="M12.2229 10C12.2229 6.80556 13.7062 3.97222 15.9859 2.13889C14.3104 0.805556 12.1955 0 9.88821 0C4.42223 0 0 4.47222 0 10C0 15.5278 4.42223 20 9.88821 20C12.1955 20 14.3104 19.1944 15.9859 17.8611C13.7062 16.0556 12.2229 13.1944 12.2229 10Z" fill="#EB001B"/>
<path id="Vector_3" d="M32.0016 10C32.0016 15.5278 27.5793 20 22.1134 20C19.8061 20 17.6911 19.1944 16.0156 17.8611C18.3229 16.0278 19.7786 13.1944 19.7786 10C19.7786 6.80556 18.2954 3.97222 16.0156 2.13889C17.6911 0.805556 19.8061 0 22.1134 0C27.5793 0 32.0016 4.5 32.0016 10Z" fill="#F79E1B"/>
</g>
</svg>
