<svg width="16" height="16" viewBox="0 0 16 16" fill="none" xmlns="http://www.w3.org/2000/svg">
<g id="tools 1" clip-path="url(#clip0_5_36325)">
<path id="Vector" d="M11.9861 8.68245C11.2401 7.93845 10.1108 7.80378 9.22615 8.27778L6.00482 5.05645V2.99911C6.00482 2.32378 5.64148 1.69511 5.05682 1.35778L3.06948 0.211778C2.44882 -0.146888 1.66148 -0.0422217 1.15348 0.464445L0.470148 1.14911C-0.037185 1.65511 -0.140518 2.44311 0.217482 3.06378L1.36348 5.05111C1.70082 5.63645 2.33015 5.99978 3.00482 5.99978H5.06215L8.27948 9.21711C8.09415 9.55578 7.99548 9.93645 7.99548 10.3331C7.99548 10.9571 8.23882 11.5424 8.68081 11.9838L12.0235 15.3171C12.4621 15.7544 13.0595 15.9998 13.6768 15.9998C14.3335 15.9998 15.0688 15.6524 15.4888 15.1404C16.2395 14.2258 16.1395 12.8238 15.2615 11.9491L11.9861 8.68245ZM2.51815 4.38578L1.37215 2.39778C1.31482 2.29911 1.33148 2.17311 1.41281 2.09178L2.09615 1.40778C2.17748 1.32711 2.30348 1.30978 2.40282 1.36711L4.38948 2.51378C4.56282 2.61378 4.67082 2.80045 4.67082 2.99978V4.66645H3.00415C2.80415 4.66645 2.61815 4.55911 2.51815 4.38578ZM14.4581 14.2944C14.2741 14.5191 14.0141 14.6504 13.7268 14.6651C13.4461 14.6784 13.1661 14.5724 12.9655 14.3731L9.62282 11.0398C9.43348 10.8511 9.32948 10.6004 9.32948 10.3331C9.32948 10.0658 9.43415 9.81578 9.62282 9.62644C9.81882 9.43111 10.0768 9.33311 10.3341 9.33311C10.5915 9.33311 10.8488 9.43111 11.0448 9.62644L14.3208 12.8924C14.7182 13.2891 14.7781 13.9044 14.4581 14.2944ZM6.95815 11.3991C7.21815 11.6604 7.21748 12.0818 6.95682 12.3418L3.97215 15.3164C3.53348 15.7538 2.93682 15.9991 2.31881 15.9991C1.73148 15.9991 0.926815 15.6518 0.506815 15.1391C-0.243185 14.2251 -0.143852 12.8231 0.734815 11.9484L4.51348 8.17844C4.77348 7.91844 5.19615 7.91845 5.45615 8.17978C5.71615 8.44044 5.71548 8.86244 5.45481 9.12245L1.67548 12.8924C1.27815 13.2891 1.21681 13.9044 1.53682 14.2938C1.72148 14.5191 1.98148 14.6504 2.26882 14.6651C2.55282 14.6778 2.82948 14.5724 3.03015 14.3731L6.01548 11.3984C6.27615 11.1384 6.69748 11.1384 6.95881 11.3998L6.95815 11.3991ZM6.59548 3.08911C7.20881 1.52711 8.61148 0.373112 10.2561 0.0777783C10.8315 -0.0248884 11.4095 -0.0268883 11.9755 0.0737783C12.4195 0.152445 12.7775 0.465778 12.9101 0.889778C13.0628 1.37578 12.9101 1.91044 12.5021 2.31978L10.9455 3.81445C10.6221 4.13778 10.5695 4.65511 10.8355 4.98045C10.9888 5.16778 11.2041 5.27711 11.4428 5.28978C11.6755 5.30111 11.9055 5.21511 12.0741 5.04645L13.8168 3.36578C14.1408 3.04178 14.6255 2.92111 15.0788 3.06578C15.5215 3.20511 15.8461 3.57378 15.9268 4.02645C16.0268 4.59178 16.0255 5.17111 15.9228 5.74711C15.7355 6.79511 15.1895 7.77111 14.3855 8.49578C14.2581 8.61045 14.0981 8.66711 13.9395 8.66711C13.7575 8.66711 13.5755 8.59311 13.4441 8.44711C13.1975 8.17378 13.2195 7.75178 13.4928 7.50511C14.0775 6.97845 14.4741 6.27045 14.6101 5.51311C14.6755 5.14778 14.6848 4.78311 14.6388 4.42511L13.0088 5.99778C12.5855 6.42244 11.9888 6.65378 11.3768 6.62178C10.7661 6.59111 10.1928 6.30111 9.80348 5.82511C9.10882 4.97578 9.20082 3.67445 10.0128 2.86311L11.5688 1.36844L11.5748 1.36244C11.2181 1.31711 10.8541 1.32644 10.4915 1.39178C9.29948 1.60511 8.28281 2.44311 7.83681 3.57778C7.70282 3.92045 7.31548 4.08911 6.97281 3.95445C6.63015 3.81978 6.46081 3.43311 6.59615 3.09045L6.59548 3.08911Z" fill="#667085"/>
</g>
<defs>
<clipPath id="clip0_5_36325">
<rect width="16" height="16" fill="white"/>
</clipPath>
</defs>
</svg>
