<svg width="48" height="16" viewBox="0 0 48 16" fill="none" xmlns="http://www.w3.org/2000/svg">
<g id="Visa_Inc._logo 1" clip-path="url(#clip0_5_30089)">
<g id="Visa">
<path id="polygon9" d="M20.7985 15.7697H16.9102L19.3422 0.28125H23.2303L20.7985 15.7697Z" fill="#00579F"/>
<path id="path11" d="M34.8944 0.659404C34.1275 0.346018 32.911 0 31.4069 0C27.567 0 24.863 2.10895 24.8464 5.12412C24.8145 7.3487 26.7824 8.58429 28.2542 9.32604C29.7586 10.084 30.27 10.5787 30.27 11.2543C30.2546 12.2919 29.0544 12.7702 27.9349 12.7702C26.3825 12.7702 25.5507 12.5236 24.2866 11.9464L23.7746 11.6989L23.2305 15.1757C24.1424 15.6036 25.8226 15.9834 27.567 16C31.6469 16 34.3031 13.9237 34.3346 10.7105C34.3501 8.94739 33.311 7.59639 31.0707 6.49242C29.7107 5.78374 28.8779 5.30589 28.8779 4.58079C28.8938 3.9216 29.5823 3.24643 31.1175 3.24643C32.3816 3.21336 33.3103 3.52631 34.0139 3.83948L34.3656 4.00394L34.8944 0.659404Z" fill="#00579F"/>
<path id="path13" d="M40.0628 10.2827C40.383 9.39289 41.6152 5.94914 41.6152 5.94914C41.599 5.98221 41.9347 5.04293 42.1267 4.4663L42.3985 5.80088C42.3985 5.80088 43.1348 9.5083 43.2947 10.2827C42.687 10.2827 40.8308 10.2827 40.0628 10.2827ZM44.8624 0.28125H41.8548C40.9273 0.28125 40.2227 0.56113 39.8225 1.56633L34.0469 15.7695H38.1268C38.1268 15.7695 38.7985 13.8578 38.9429 13.4461C39.3904 13.4461 43.3594 13.4461 43.9352 13.4461C44.0468 13.9899 44.3991 15.7695 44.3991 15.7695H47.9993L44.8624 0.28125Z" fill="#00579F"/>
<path id="path15" d="M13.6625 0.28125L9.8545 10.8429L9.43839 8.70085C8.73437 6.22924 6.52644 3.54388 4.0625 2.20865L7.55046 15.7532H11.6623L17.7741 0.28125H13.6625Z" fill="#00579F"/>
<path id="path17" d="M6.31995 0.28125H0.0640009L0 0.594198C4.88003 1.8795 8.11199 4.97766 9.43985 8.70151L8.07988 1.58319C7.85598 0.593979 7.16792 0.313881 6.31995 0.28125Z" fill="#F4A622"/>
</g>
</g>
<defs>
<clipPath id="clip0_5_30089">
<rect width="48" height="16" fill="white"/>
</clipPath>
</defs>
</svg>
